<?xml version="1.0" encoding="UTF-8"?>
<svg version="1.1" xmlns="http://www.w3.org/2000/svg" width="164" height="48">
<path d="M0 0 C0 3.3 0 6.6 0 10 C-3 7 -3 7 -4 5 C-4.99 4.67 -5.98 4.34 -7 4 C-6.505 11.92 -6.505 11.92 -6 20 C-5.01 20 -4.02 20 -3 20 C2.31085536 11.58539983 2.31085536 11.58539983 3 2 C4.546875 2.0309375 4.546875 2.0309375 6.125 2.0625 C9.85428971 2.11614962 9.85428971 2.11614962 12.875 1.4375 C17.03704595 0.85481357 20.8621307 1.40230777 25 2 C24.82597656 2.61359375 24.65195313 3.2271875 24.47265625 3.859375 C23.93994607 6.2719798 24.25276496 7.67526878 25 10 C27.57327433 8.78969026 27.57327433 8.78969026 30 7 C30 5.68 30 4.36 30 3 C30 2.67 30 2.34 30 2 C45.90222041 0.42432267 45.90222041 0.42432267 51 2 C52.84964896 4.49781654 53.98646497 7.07275081 55 10 C55.08226668 6.95613276 54.97608217 4.92824652 54 2 C62.25 2 70.5 2 79 2 C79 4.31 79 6.62 79 9 C78.34 9 77.68 9 77 9 C76.01 7.515 76.01 7.515 75 6 C73.68 6 72.36 6 71 6 C70.34 7.65 69.68 9.3 69 11 C69.66 11 70.32 11 71 11 C71.66 9.68 72.32 8.36 73 7 C73 10.63 73 14.26 73 18 C71.68 17.01 70.36 16.02 69 15 C69.495 16.98 69.495 16.98 70 19 C72.28694223 19.50379029 72.28694223 19.50379029 75 19 C76.99022836 17.16038352 78.38989899 15.20813852 80 13 C80.99 14.485 80.99 14.485 82 16 C82.70765749 14.8033603 83.39025121 13.59188424 84.0625 12.375 C84.44535156 11.70210937 84.82820313 11.02921875 85.22265625 10.3359375 C86.3875623 7.44280111 86.3875623 7.44280111 85 2 C89.62 2 94.24 2 99 2 C98.67 2.66 98.34 3.32 98 4 C98.02457654 6.20960025 98.02457654 6.20960025 98.3125 8.6875 C98.39113281 9.51636719 98.46976563 10.34523438 98.55078125 11.19921875 C99.09027053 14.56281712 100.01570031 17.74176713 101 21 C101.02689449 18.04160645 101.04678741 15.08345573 101.0625 12.125 C101.07087891 11.28324219 101.07925781 10.44148438 101.08789062 9.57421875 C101.09111328 8.76855469 101.09433594 7.96289062 101.09765625 7.1328125 C101.10289307 6.38918457 101.10812988 5.64555664 101.11352539 4.87939453 C101.11786636 2.90867432 101.11786636 2.90867432 100 1 C102.39528594 0.74992612 104.78879325 0.52447874 107.1875 0.3125 C107.86103516 0.23966797 108.53457031 0.16683594 109.22851562 0.09179688 C113.76784159 -0.28463503 116.44517866 0.09333218 120 3 C121.0625 5.875 121.0625 5.875 121 9 C119.0625 11.875 119.0625 11.875 117 14 C117.99 14.99 117.99 14.99 119 16 C120.1470093 18.62023225 121.04253078 21.30167765 122 24 C118.7 24 115.4 24 112 24 C112.33 21.36 112.66 18.72 113 16 C111.02 16 109.04 16 107 16 C107.99 18.64 108.98 21.28 110 24 C104.39 24 98.78 24 93 24 C93.66 22.02 94.32 20.04 95 18 C92.36 18.33 89.72 18.66 87 19 C87.495 20.98 87.495 20.98 88 23 C79.96496853 23.90172698 72.08499235 24.0869354 64 24 C63.67 17.73 63.34 11.46 63 5 C62.67 5 62.34 5 62 5 C61.93941406 6.20398438 61.87882812 7.40796875 61.81640625 8.6484375 C61.73200268 10.22397077 61.64735459 11.79949096 61.5625 13.375 C61.52318359 14.1690625 61.48386719 14.963125 61.44335938 15.78125 C61.11328125 21.7734375 61.11328125 21.7734375 60 24 C58.68 24 57.36 24 56 24 C54.02 20.37 52.04 16.74 50 13 C50.495 18.445 50.495 18.445 51 24 C48.03 24 45.06 24 42 24 C42.33 22.68 42.66 21.36 43 20 C43.07708723 18.63199181 43.10803609 17.26076408 43.09765625 15.890625 C43.09443359 15.13652344 43.09121094 14.38242187 43.08789062 13.60546875 C43.07951172 12.82816406 43.07113281 12.05085938 43.0625 11.25 C43.05798828 10.45722656 43.05347656 9.66445313 43.04882812 8.84765625 C43.03708565 6.89840492 43.01915146 4.94919262 43 3 C36.26778103 7.20188161 36.26778103 7.20188161 31 13 C30.47934406 15.85818418 30.71030159 18.05473285 31 21 C31 21.99 31 22.98 31 24 C24.4 24 17.8 24 11 24 C11.33 22.02 11.66 20.04 12 18 C9.69 18.66 7.38 19.32 5 20 C5 20.99 5 21.98 5 23 C3.33466526 23.19898301 1.66760149 23.38350473 0 23.5625 C-0.928125 23.66691406 -1.85625 23.77132813 -2.8125 23.87890625 C-6 24 -6 24 -14 23 C-13.67 17.06 -13.34 11.12 -13 5 C-14.98 7.97 -14.98 7.97 -17 11 C-17.33 11 -17.66 11 -18 11 C-18 9.35 -18 7.7 -18 6 C-18.66 6 -19.32 6 -20 6 C-20.33 7.32 -20.66 8.64 -21 10 C-22.5 8.625 -22.5 8.625 -24 7 C-24 6.34 -24 5.68 -24 5 C-26.31 5.33 -28.62 5.66 -31 6 C-28.99381809 7.53626543 -26.99335131 9.00422216 -24.859375 10.359375 C-19.20049941 14.09004113 -19.20049941 14.09004113 -18.1875 18.6875 C-19 22 -19 22 -21.0625 23.9375 C-25.88006709 25.68002427 -29.48068571 25.51599353 -34.3125 23.875 C-37.60689727 21.5765833 -38.1436006 19.85379728 -39 16 C-34.545 15.505 -34.545 15.505 -30 15 C-30.33 16.32 -30.66 17.64 -31 19 C-29.35 19.33 -27.7 19.66 -26 20 C-26.11265297 17.55636992 -26.11265297 17.55636992 -27 15 C-29.22125838 13.59964505 -29.22125838 13.59964505 -31.9375 12.8125 C-36.84782609 11.15217391 -36.84782609 11.15217391 -39 9 C-38.875 6 -38.875 6 -38 3 C-34.72164088 0.68451559 -31.85706981 0.8207071 -27.9375 0.9375 C-18.59284244 1.08535851 -9.32281759 0 0 0 Z M15 3 C14.67 3.33 14.34 3.66 14 4 C14.05661126 10.34046126 15.78796106 16.1151417 18 22 C19.32 22 20.64 22 22 22 C24.08207704 18.87688444 24.36762099 17.6786899 23.75390625 14.05078125 C22.18691221 9.7882327 19.05532619 6.30244817 16 3 C15.67 3 15.34 3 15 3 Z M109 4 C107.57055055 6.35438733 106.91338739 7.48032433 107.375 10.25 C107.58125 10.8275 107.7875 11.405 108 12 C109.65 11.67 111.3 11.34 113 11 C113 9.02 113 7.04 113 5 C111.68 4.67 110.36 4.34 109 4 Z M10 8 C8.515 11.465 8.515 11.465 7 15 C8.65 15 10.3 15 12 15 C11.67 12.69 11.34 10.38 11 8 C10.67 8 10.34 8 10 8 Z M92 9 C91.34 10.98 90.68 12.96 90 15 C91.65 15 93.3 15 95 15 C94.67 13.02 94.34 11.04 94 9 C93.34 9 92.68 9 92 9 Z " fill="#F6FA01" transform="translate(40,7)"/>
<path d="M0 0 C0 3.3 0 6.6 0 10 C-3 7 -3 7 -4 5 C-4.99 4.67 -5.98 4.34 -7 4 C-6.505 11.92 -6.505 11.92 -6 20 C-5.01 20 -4.02 20 -3 20 C2.31085536 11.58539983 2.31085536 11.58539983 3 2 C4.546875 2.0309375 4.546875 2.0309375 6.125 2.0625 C9.85428971 2.11614962 9.85428971 2.11614962 12.875 1.4375 C17.03704595 0.85481357 20.8621307 1.40230777 25 2 C24.82597656 2.61359375 24.65195313 3.2271875 24.47265625 3.859375 C23.93994607 6.2719798 24.25276496 7.67526878 25 10 C27.57327433 8.78969026 27.57327433 8.78969026 30 7 C30 5.68 30 4.36 30 3 C30 2.67 30 2.34 30 2 C33.96 2 37.92 2 42 2 C40.948125 3.051875 40.948125 3.051875 39.875 4.125 C39.42511719 4.58519531 38.97523437 5.04539062 38.51171875 5.51953125 C37 7 37 7 35.33203125 8.38671875 C32.08091664 11.16326413 32.08091664 11.16326413 30.62109375 15.0546875 C30.5913731 17.47221979 30.5913731 17.47221979 31 21 C31 21.99 31 22.98 31 24 C24.4 24 17.8 24 11 24 C11.33 22.02 11.66 20.04 12 18 C9.69 18.66 7.38 19.32 5 20 C5 20.99 5 21.98 5 23 C3.33466526 23.19898301 1.66760149 23.38350473 0 23.5625 C-0.928125 23.66691406 -1.85625 23.77132813 -2.8125 23.87890625 C-6 24 -6 24 -14 23 C-13.67 17.06 -13.34 11.12 -13 5 C-14.98 7.97 -14.98 7.97 -17 11 C-17.33 11 -17.66 11 -18 11 C-18 9.35 -18 7.7 -18 6 C-18.66 6 -19.32 6 -20 6 C-20.33 7.32 -20.66 8.64 -21 10 C-22.5 8.625 -22.5 8.625 -24 7 C-24 6.34 -24 5.68 -24 5 C-26.31 5.33 -28.62 5.66 -31 6 C-28.99381809 7.53626543 -26.99335131 9.00422216 -24.859375 10.359375 C-19.20049941 14.09004113 -19.20049941 14.09004113 -18.1875 18.6875 C-19 22 -19 22 -21.0625 23.9375 C-25.88006709 25.68002427 -29.48068571 25.51599353 -34.3125 23.875 C-37.60689727 21.5765833 -38.1436006 19.85379728 -39 16 C-34.545 15.505 -34.545 15.505 -30 15 C-30.33 16.32 -30.66 17.64 -31 19 C-29.35 19.33 -27.7 19.66 -26 20 C-26.11265297 17.55636992 -26.11265297 17.55636992 -27 15 C-29.22125838 13.59964505 -29.22125838 13.59964505 -31.9375 12.8125 C-36.84782609 11.15217391 -36.84782609 11.15217391 -39 9 C-38.875 6 -38.875 6 -38 3 C-34.72164088 0.68451559 -31.85706981 0.8207071 -27.9375 0.9375 C-18.59284244 1.08535851 -9.32281759 0 0 0 Z M15 3 C14.67 3.33 14.34 3.66 14 4 C14.05661126 10.34046126 15.78796106 16.1151417 18 22 C19.32 22 20.64 22 22 22 C24.08207704 18.87688444 24.36762099 17.6786899 23.75390625 14.05078125 C22.18691221 9.7882327 19.05532619 6.30244817 16 3 C15.67 3 15.34 3 15 3 Z M10 8 C8.515 11.465 8.515 11.465 7 15 C8.65 15 10.3 15 12 15 C11.67 12.69 11.34 10.38 11 8 C10.67 8 10.34 8 10 8 Z " fill="#333333" transform="translate(40,7)"/>
<path d="M0 0 C8 0 16 0 24 0 C23.34 2.97 22.68 5.94 22 9 C25.28814599 6.27393696 25.28814599 6.27393696 26.25 2.25 C26.12625 1.13625 26.12625 1.13625 26 0 C27.32 0 28.64 0 30 0 C30 2.97 30 5.94 30 9 C30.66 9 31.32 9 32 9 C32 6.36 32 3.72 32 1 C35.42232972 -0.14077657 38.08673217 -0.09815117 41.6875 -0.0625 C43.45673828 -0.04896484 43.45673828 -0.04896484 45.26171875 -0.03515625 C46.16535156 -0.02355469 47.06898437 -0.01195312 48 0 C47.98839844 0.62648437 47.97679687 1.25296875 47.96484375 1.8984375 C47.95582031 2.71570312 47.94679687 3.53296875 47.9375 4.375 C47.92589844 5.18710937 47.91429687 5.99921875 47.90234375 6.8359375 C47.85533666 9.04937142 47.85533666 9.04937142 49 11 C47.35 11 45.7 11 44 11 C44.020625 9.88625 44.04125 8.7725 44.0625 7.625 C44.26380718 4.16784079 44.26380718 4.16784079 43 2 C42.34 2 41.68 2 41 2 C41.495 6.455 41.495 6.455 42 11 C40.35 11 38.7 11 37 11 C37 9.02 37 7.04 37 5 C36.01 6.98 35.02 8.96 34 11 C29.05 11 24.1 11 19 11 C18.67 10.34 18.34 9.68 18 9 C17.34 9.66 16.68 10.32 16 11 C14.00938162 11.03263309 12.01728953 11.05726749 10.02734375 10.99609375 C7.85946831 10.9260218 7.85946831 10.9260218 5.25 11.625 C2.49345399 12.08442433 1.32387698 11.4631818 -1 10 C-1 9.01 -1 8.02 -1 7 C-0.34 6.67 0.32 6.34 1 6 C0.34 5.67 -0.32 5.34 -1 5 C-0.67 3.35 -0.34 1.7 0 0 Z M3 2 C3 2.66 3 3.32 3 4 C3.99 4 4.98 4 6 4 C6 3.34 6 2.68 6 2 C5.01 2 4.02 2 3 2 Z M13 2 C10.69328085 4.71549154 10.69328085 4.71549154 11.375 7.1875 C11.58125 7.785625 11.7875 8.38375 12 9 C12.99 8.67 13.98 8.34 15 8 C15 6.02 15 4.04 15 2 C14.34 2 13.68 2 13 2 Z M3 6 C3 6.99 3 7.98 3 9 C3.66 9 4.32 9 5 9 C4.67 8.01 4.34 7.02 4 6 C3.67 6 3.34 6 3 6 Z " fill="#CF7120" transform="translate(67,34)"/>
<path d="M0 0 C0.33 2.31 0.66 4.62 1 7 C1.66 6.67 2.32 6.34 3 6 C2.34 5.67 1.68 5.34 1 5 C1.33 3.35 1.66 1.7 2 0 C5.96 0 9.92 0 14 0 C14.495 1.485 14.495 1.485 15 3 C15.33 2.01 15.66 1.02 16 0 C17.65 0 19.3 0 21 0 C19.84826645 2.46800047 18.95216435 4.04783565 17 6 C16.83312552 8.58354218 16.83312552 8.58354218 17 11 C15.35 11 13.7 11 12 11 C12.04125 10.21625 12.0825 9.4325 12.125 8.625 C12.28728734 5.83883881 12.28728734 5.83883881 10 4 C10 6.31 10 8.62 10 11 C5.37641448 12.01493341 1.63768456 11.98104866 -3 11 C-3.66 10.34 -4.32 9.68 -5 9 C-5 9.66 -5 10.32 -5 11 C-8.96 11 -12.92 11 -17 11 C-16.979375 9.906875 -16.95875 8.81375 -16.9375 7.6875 C-16.81455548 4.05615809 -16.81455548 4.05615809 -18 1 C-15.03 1 -12.06 1 -9 1 C-9.33 1.99 -9.66 2.98 -10 4 C-10.66 3.67 -11.32 3.34 -12 3 C-12 4.65 -12 6.3 -12 8 C-9.42672567 6.78969026 -9.42672567 6.78969026 -7 5 C-7 3.68 -7 2.36 -7 1 C-2.25 0 -2.25 0 0 0 Z M5 2 C5 2.66 5 3.32 5 4 C5.99 4.33 6.98 4.66 8 5 C7.67 4.01 7.34 3.02 7 2 C6.34 2 5.68 2 5 2 Z M-14 3 C-13 5 -13 5 -13 5 Z M5 7 C4.67 7.66 4.34 8.32 4 9 C4.99 9 5.98 9 7 9 C7 8.34 7 7.68 7 7 C6.34 7 5.68 7 5 7 Z " fill="#CF7120" transform="translate(43,34)"/>
<path d="M0 0 C1.18613892 0.00785522 1.18613892 0.00785522 2.39624023 0.01586914 C3.67724609 0.02070312 3.67724609 0.02070312 4.98413086 0.02563477 C5.88196289 0.03401367 6.77979492 0.04239258 7.70483398 0.05102539 C8.6065332 0.05553711 9.50823242 0.06004883 10.43725586 0.06469727 C12.67230988 0.07652295 14.90733 0.09445901 17.14233398 0.11352539 C16.81233398 3.74352539 16.48233398 7.37352539 16.14233398 11.11352539 C14.82233398 10.78352539 13.50233398 10.45352539 12.14233398 10.11352539 C11.81233398 10.44352539 11.48233398 10.77352539 11.14233398 11.11352539 C8.64233398 11.23852539 8.64233398 11.23852539 6.14233398 11.11352539 C5.81233398 10.78352539 5.48233398 10.45352539 5.14233398 10.11352539 C4.81233398 10.44352539 4.48233398 10.77352539 4.14233398 11.11352539 C1.38310669 11.40397037 -0.29464278 11.43257189 -2.73266602 10.05102539 C-4.52076937 6.97151406 -3.60359208 4.47019266 -2.85766602 1.11352539 C-1.85766602 0.11352539 -1.85766602 0.11352539 0 0 Z M6.14233398 1.11352539 C7.14233398 3.11352539 7.14233398 3.11352539 7.14233398 3.11352539 Z M1.14233398 2.11352539 C0.03597003 4.50421273 0.03597003 4.50421273 -0.85766602 7.11352539 C-0.52766602 7.77352539 -0.19766602 8.43352539 0.14233398 9.11352539 C1.13233398 8.78352539 2.12233398 8.45352539 3.14233398 8.11352539 C3.14233398 6.13352539 3.14233398 4.15352539 3.14233398 2.11352539 C2.48233398 2.11352539 1.82233398 2.11352539 1.14233398 2.11352539 Z M12.14233398 2.11352539 C13.14233398 4.11352539 13.14233398 4.11352539 13.14233398 4.11352539 Z " fill="#CF7120" transform="translate(118.857666015625,33.886474609375)"/>
<path d="M0 0 C1.32 0 2.64 0 4 0 C4 0.66 4 1.32 4 2 C5.65 1.34 7.3 0.68 9 0 C9.66 0.99 10.32 1.98 11 3 C5.39 3 -0.22 3 -6 3 C-5.67 2.34 -5.34 1.68 -5 1 C-3.35 1.33 -1.7 1.66 0 2 C0 1.34 0 0.68 0 0 Z " fill="#E1E500" transform="translate(139,28)"/>
</svg>
